<svg width="39" height="39" viewBox="0 0 39 39" fill="none" xmlns="http://www.w3.org/2000/svg">
<path d="M37.2001 19.1999C37.2002 20.8614 36.7076 22.4855 35.7846 23.867C34.8616 25.2485 33.5497 26.3253 32.0147 26.9611C30.4797 27.5969 28.7907 27.7633 27.1611 27.4391C25.5316 27.1149 24.0348 26.3148 22.8601 25.1399L22.8151 25.0799L13.8151 14.9399C13.2622 14.3859 12.6051 13.9468 11.8817 13.6482C11.1582 13.3495 10.3827 13.1972 9.60007 13.1999C8.00877 13.1999 6.48265 13.8321 5.35743 14.9573C4.23221 16.0825 3.60007 17.6086 3.60007 19.1999C3.60007 20.7912 4.23221 22.3173 5.35743 23.4426C6.48265 24.5678 8.00877 25.1999 9.60007 25.1999C10.3827 25.2027 11.1582 25.0503 11.8817 24.7517C12.6051 24.453 13.2622 24.014 13.8151 23.4599L15.0901 22.0199C15.3009 21.7812 15.598 21.6361 15.9158 21.6164C16.2337 21.5967 16.5464 21.7041 16.7851 21.9149C17.0238 22.1258 17.1689 22.4228 17.1886 22.7407C17.2083 23.0586 17.1009 23.3712 16.8901 23.6099L15.5851 25.0799L15.5401 25.1399C14.76 25.92 13.834 26.5388 12.8148 26.961C11.7956 27.3832 10.7032 27.6005 9.60007 27.6005C8.4969 27.6005 7.40453 27.3832 6.38533 26.961C5.36614 26.5388 4.4401 25.92 3.66007 25.1399C2.48519 23.9652 1.68507 22.4684 1.3609 20.8389C1.03674 19.2093 1.20309 17.5203 1.83891 15.9853C2.47474 14.4503 3.55148 13.1384 4.93297 12.2154C6.31445 11.2924 7.93862 10.7998 9.60007 10.7999C10.7038 10.7957 11.7974 11.011 12.8171 11.4334C13.8369 11.8557 14.7625 12.4766 15.5401 13.2599L15.5851 13.3199L24.5851 23.4599C25.1379 24.014 25.795 24.453 26.5185 24.7517C27.2419 25.0503 28.0174 25.2027 28.8001 25.1999C30.3914 25.1999 31.9175 24.5678 33.0427 23.4426C34.1679 22.3173 34.8001 20.7912 34.8001 19.1999C34.8001 17.6086 34.1679 16.0825 33.0427 14.9573C31.9175 13.8321 30.3914 13.1999 28.8001 13.1999C28.0174 13.1972 27.2419 13.3495 26.5185 13.6482C25.795 13.9468 25.1379 14.3859 24.5851 14.9399L23.3101 16.3799C23.0992 16.6186 22.8022 16.7638 22.4843 16.7835C22.1664 16.8032 21.8538 16.6958 21.6151 16.4849C21.3764 16.2741 21.2312 15.977 21.2115 15.6592C21.1918 15.3413 21.2992 15.0286 21.5101 14.7899L22.8151 13.3199L22.8601 13.2599C24.0348 12.085 25.5316 11.2849 27.1611 10.9608C28.7907 10.6366 30.4797 10.8029 32.0147 11.4388C33.5497 12.0746 34.8616 13.1513 35.7846 14.5328C36.7076 15.9143 37.2002 17.5385 37.2001 19.1999Z" fill="white"/>
</svg>
