<svg width="39" height="39" viewBox="0 0 39 39" fill="none" xmlns="http://www.w3.org/2000/svg">
<path d="M9.5999 35.2C8.7199 35.2 7.96684 34.8869 7.3407 34.2608C6.7135 33.6336 6.3999 32.88 6.3999 32V16C6.3999 15.12 6.7135 14.3664 7.3407 13.7392C7.96684 13.113 8.7199 12.8 9.5999 12.8H11.1999V9.59998C11.1999 7.38664 11.9802 5.49971 13.5407 3.93918C15.1002 2.37971 16.9866 1.59998 19.1999 1.59998C21.4132 1.59998 23.3002 2.37971 24.8607 3.93918C26.4202 5.49971 27.1999 7.38664 27.1999 9.59998V12.8H28.7999C29.6799 12.8 30.4335 13.113 31.0607 13.7392C31.6868 14.3664 31.9999 15.12 31.9999 16V32C31.9999 32.88 31.6868 33.6336 31.0607 34.2608C30.4335 34.8869 29.6799 35.2 28.7999 35.2H9.5999ZM19.1999 27.2C20.0799 27.2 20.8335 26.8869 21.4607 26.2608C22.0868 25.6336 22.3999 24.88 22.3999 24C22.3999 23.12 22.0868 22.3664 21.4607 21.7392C20.8335 21.113 20.0799 20.8 19.1999 20.8C18.3199 20.8 17.5668 21.113 16.9407 21.7392C16.3135 22.3664 15.9999 23.12 15.9999 24C15.9999 24.88 16.3135 25.6336 16.9407 26.2608C17.5668 26.8869 18.3199 27.2 19.1999 27.2ZM14.3999 12.8H23.9999V9.59998C23.9999 8.26664 23.5332 7.13331 22.5999 6.19998C21.6666 5.26664 20.5332 4.79998 19.1999 4.79998C17.8666 4.79998 16.7332 5.26664 15.7999 6.19998C14.8666 7.13331 14.3999 8.26664 14.3999 9.59998V12.8Z" fill="white"/>
</svg>
