<svg width="134" height="32" viewBox="0 0 134 32" fill="none" xmlns="http://www.w3.org/2000/svg">
<path d="M36.63 16.7C36.63 15.464 36.906 14.36 37.458 13.388C38.022 12.404 38.784 11.642 39.744 11.102C40.716 10.55 41.802 10.274 43.002 10.274C44.406 10.274 45.636 10.634 46.692 11.354C47.748 12.074 48.486 13.07 48.906 14.342H46.008C45.72 13.742 45.312 13.292 44.784 12.992C44.268 12.692 43.668 12.542 42.984 12.542C42.252 12.542 41.598 12.716 41.022 13.064C40.458 13.4 40.014 13.88 39.69 14.504C39.378 15.128 39.222 15.86 39.222 16.7C39.222 17.528 39.378 18.26 39.69 18.896C40.014 19.52 40.458 20.006 41.022 20.354C41.598 20.69 42.252 20.858 42.984 20.858C43.668 20.858 44.268 20.708 44.784 20.408C45.312 20.096 45.72 19.64 46.008 19.04H48.906C48.486 20.324 47.748 21.326 46.692 22.046C45.648 22.754 44.418 23.108 43.002 23.108C41.802 23.108 40.716 22.838 39.744 22.298C38.784 21.746 38.022 20.984 37.458 20.012C36.906 19.04 36.63 17.936 36.63 16.7ZM52.3364 11.84C51.8924 11.84 51.5204 11.702 51.2204 11.426C50.9324 11.138 50.7884 10.784 50.7884 10.364C50.7884 9.944 50.9324 9.596 51.2204 9.32C51.5204 9.032 51.8924 8.888 52.3364 8.888C52.7804 8.888 53.1464 9.032 53.4344 9.32C53.7344 9.596 53.8844 9.944 53.8844 10.364C53.8844 10.784 53.7344 11.138 53.4344 11.426C53.1464 11.702 52.7804 11.84 52.3364 11.84ZM53.5784 13.028V23H51.0584V13.028H53.5784ZM58.5882 14.576C58.9122 14.048 59.3322 13.634 59.8482 13.334C60.3762 13.034 60.9762 12.884 61.6482 12.884V15.53H60.9822C60.1902 15.53 59.5902 15.716 59.1822 16.088C58.7862 16.46 58.5882 17.108 58.5882 18.032V23H56.0682V13.028H58.5882V14.576ZM62.6975 18.014C62.6975 16.982 62.9075 16.082 63.3275 15.314C63.7475 14.534 64.3295 13.934 65.0735 13.514C65.8175 13.082 66.6695 12.866 67.6295 12.866C68.8655 12.866 69.8855 13.178 70.6895 13.802C71.5055 14.414 72.0515 15.278 72.3275 16.394H69.6095C69.4655 15.962 69.2195 15.626 68.8715 15.386C68.5355 15.134 68.1155 15.008 67.6115 15.008C66.8915 15.008 66.3215 15.272 65.9015 15.8C65.4815 16.316 65.2715 17.054 65.2715 18.014C65.2715 18.962 65.4815 19.7 65.9015 20.228C66.3215 20.744 66.8915 21.002 67.6115 21.002C68.6315 21.002 69.2975 20.546 69.6095 19.634H72.3275C72.0515 20.714 71.5055 21.572 70.6895 22.208C69.8735 22.844 68.8535 23.162 67.6295 23.162C66.6695 23.162 65.8175 22.952 65.0735 22.532C64.3295 22.1 63.7475 21.5 63.3275 20.732C62.9075 19.952 62.6975 19.046 62.6975 18.014ZM76.6936 9.68V23H74.1736V9.68H76.6936ZM88.4534 17.798C88.4534 18.158 88.4294 18.482 88.3814 18.77H81.0914C81.1514 19.49 81.4034 20.054 81.8474 20.462C82.2914 20.87 82.8374 21.074 83.4854 21.074C84.4214 21.074 85.0874 20.672 85.4834 19.868H88.2014C87.9134 20.828 87.3614 21.62 86.5454 22.244C85.7294 22.856 84.7274 23.162 83.5394 23.162C82.5794 23.162 81.7154 22.952 80.9474 22.532C80.1914 22.1 79.5974 21.494 79.1654 20.714C78.7454 19.934 78.5354 19.034 78.5354 18.014C78.5354 16.982 78.7454 16.076 79.1654 15.296C79.5854 14.516 80.1734 13.916 80.9294 13.496C81.6854 13.076 82.5554 12.866 83.5394 12.866C84.4874 12.866 85.3334 13.07 86.0774 13.478C86.8334 13.886 87.4154 14.468 87.8234 15.224C88.2434 15.968 88.4534 16.826 88.4534 17.798ZM85.8434 17.078C85.8314 16.43 85.5974 15.914 85.1414 15.53C84.6854 15.134 84.1274 14.936 83.4674 14.936C82.8434 14.936 82.3154 15.128 81.8834 15.512C81.4634 15.884 81.2054 16.406 81.1094 17.078H85.8434Z" fill="white"/>
<path d="M89.6808 16.7C89.6808 15.464 89.9568 14.36 90.5088 13.388C91.0728 12.404 91.8348 11.642 92.7948 11.102C93.7668 10.55 94.8528 10.274 96.0528 10.274C97.4568 10.274 98.6868 10.634 99.7428 11.354C100.799 12.074 101.537 13.07 101.957 14.342H99.0588C98.7708 13.742 98.3628 13.292 97.8348 12.992C97.3188 12.692 96.7188 12.542 96.0348 12.542C95.3028 12.542 94.6488 12.716 94.0728 13.064C93.5088 13.4 93.0648 13.88 92.7408 14.504C92.4288 15.128 92.2728 15.86 92.2728 16.7C92.2728 17.528 92.4288 18.26 92.7408 18.896C93.0648 19.52 93.5088 20.006 94.0728 20.354C94.6488 20.69 95.3028 20.858 96.0348 20.858C96.7188 20.858 97.3188 20.708 97.8348 20.408C98.3628 20.096 98.7708 19.64 99.0588 19.04H101.957C101.537 20.324 100.799 21.326 99.7428 22.046C98.6988 22.754 97.4688 23.108 96.0528 23.108C94.8528 23.108 93.7668 22.838 92.7948 22.298C91.8348 21.746 91.0728 20.984 90.5088 20.012C89.9568 19.04 89.6808 17.936 89.6808 16.7ZM109.725 12.884C110.481 12.884 111.153 13.052 111.741 13.388C112.329 13.712 112.785 14.198 113.109 14.846C113.445 15.482 113.613 16.25 113.613 17.15V23H111.093V17.492C111.093 16.7 110.895 16.094 110.499 15.674C110.103 15.242 109.563 15.026 108.879 15.026C108.183 15.026 107.631 15.242 107.223 15.674C106.827 16.094 106.629 16.7 106.629 17.492V23H104.109V9.68H106.629V14.27C106.953 13.838 107.385 13.502 107.925 13.262C108.465 13.01 109.065 12.884 109.725 12.884ZM115.362 17.978C115.362 16.97 115.56 16.076 115.956 15.296C116.364 14.516 116.91 13.916 117.594 13.496C118.29 13.076 119.064 12.866 119.916 12.866C120.66 12.866 121.308 13.016 121.86 13.316C122.424 13.616 122.874 13.994 123.21 14.45V13.028H125.748V23H123.21V21.542C122.886 22.01 122.436 22.4 121.86 22.712C121.296 23.012 120.642 23.162 119.898 23.162C119.058 23.162 118.29 22.946 117.594 22.514C116.91 22.082 116.364 21.476 115.956 20.696C115.56 19.904 115.362 18.998 115.362 17.978ZM123.21 18.014C123.21 17.402 123.09 16.88 122.85 16.448C122.61 16.004 122.286 15.668 121.878 15.44C121.47 15.2 121.032 15.08 120.564 15.08C120.096 15.08 119.664 15.194 119.268 15.422C118.872 15.65 118.548 15.986 118.296 16.43C118.056 16.862 117.936 17.378 117.936 17.978C117.936 18.578 118.056 19.106 118.296 19.562C118.548 20.006 118.872 20.348 119.268 20.588C119.676 20.828 120.108 20.948 120.564 20.948C121.032 20.948 121.47 20.834 121.878 20.606C122.286 20.366 122.61 20.03 122.85 19.598C123.09 19.154 123.21 18.626 123.21 18.014ZM131.143 15.098V19.922C131.143 20.258 131.221 20.504 131.377 20.66C131.545 20.804 131.821 20.876 132.205 20.876H133.375V23H131.791C129.667 23 128.605 21.968 128.605 19.904V15.098H127.417V13.028H128.605V10.562H131.143V13.028H133.375V15.098H131.143Z" fill="#5CE1E6"/>
<path d="M16 0C12.8355 -3.77363e-08 9.74206 0.938383 7.11088 2.69649C4.47969 4.45459 2.42893 6.95345 1.21793 9.87706C0.00692588 12.8007 -0.309928 16.0177 0.307435 19.1214C0.924798 22.2251 2.44865 25.0761 4.68629 27.3137C6.92393 29.5513 9.77485 31.0752 12.8786 31.6926C15.9822 32.3099 19.1993 31.9931 22.1229 30.7821C25.0465 29.5711 27.5454 27.5203 29.3035 24.8891C31.0616 22.2579 32 19.1645 32 16L24 16C24 17.5823 23.5308 19.129 22.6518 20.4446C21.7727 21.7602 20.5233 22.7855 19.0615 23.391C17.5997 23.9965 15.9911 24.155 14.4393 23.8463C12.8874 23.5376 11.462 22.7757 10.3431 21.6569C9.22432 20.538 8.4624 19.1126 8.15372 17.5607C7.84504 16.0089 8.00346 14.4003 8.60896 12.9385C9.21447 11.4767 10.2398 10.2273 11.5554 9.34824C12.871 8.46919 14.4177 8 16 8L16 0Z" fill="white"/>
<path d="M16 0C13.8989 -2.5056e-08 11.8183 0.413852 9.87706 1.21793C7.93586 2.022 6.17203 3.20055 4.68629 4.68629C3.20055 6.17203 2.022 7.93586 1.21793 9.87707C0.413852 11.8183 -3.17265e-07 13.8989 0 16L8 16C8 14.9494 8.20693 13.9091 8.60896 12.9385C9.011 11.9679 9.60028 11.086 10.3431 10.3431C11.086 9.60028 11.9679 9.011 12.9385 8.60896C13.9091 8.20693 14.9494 8 16 8L16 0Z" fill="#5CE1E6"/>
<circle cx="16" cy="16" r="5" fill="#5CE1E6"/>
<path d="M21 16C21 15.3434 20.8707 14.6932 20.6194 14.0866C20.3681 13.48 19.9998 12.9288 19.5355 12.4645C19.0712 12.0002 18.52 11.6319 17.9134 11.3806C17.3068 11.1293 16.6566 11 16 11C15.3434 11 14.6932 11.1293 14.0866 11.3806C13.48 11.6319 12.9288 12.0002 12.4645 12.4645C12.0002 12.9288 11.6319 13.48 11.3806 14.0866C11.1293 14.6932 11 15.3434 11 16L16 16H21Z" fill="white"/>
</svg>
